<mxfile host="65bd71144e">
    <diagram id="C5RBs43oDa-KdzZeNtuy" name="Page-1">
        <mxGraphModel dx="2042" dy="1431" grid="1" gridSize="10" guides="1" tooltips="1" connect="1" arrows="1" fold="1" page="1" pageScale="1" pageWidth="1169" pageHeight="827" math="0" shadow="0">
            <root>
                <mxCell id="WIyWlLk6GJQsqaUBKTNV-0"/>
                <mxCell id="WIyWlLk6GJQsqaUBKTNV-1" parent="WIyWlLk6GJQsqaUBKTNV-0"/>
                <mxCell id="tVtpj592pyamEEXmdhVW-80" style="edgeStyle=orthogonalEdgeStyle;shape=connector;rounded=0;orthogonalLoop=1;jettySize=auto;html=1;labelBackgroundColor=default;strokeColor=default;align=center;verticalAlign=middle;fontFamily=Helvetica;fontSize=11;fontColor=default;endArrow=diamondThin;endFill=1;endSize=24;entryX=0.25;entryY=0;entryDx=0;entryDy=0;" parent="WIyWlLk6GJQsqaUBKTNV-1" target="14" edge="1">
                    <mxGeometry relative="1" as="geometry">
                        <Array as="points">
                            <mxPoint x="632" y="150"/>
                            <mxPoint x="632" y="240"/>
                            <mxPoint x="725" y="240"/>
                            <mxPoint x="725" y="280"/>
                            <mxPoint x="724" y="280"/>
                        </Array>
                        <mxPoint x="697" y="150" as="sourcePoint"/>
                        <mxPoint x="687" y="280" as="targetPoint"/>
                    </mxGeometry>
                </mxCell>
                <mxCell id="tVtpj592pyamEEXmdhVW-75" style="edgeStyle=orthogonalEdgeStyle;shape=connector;rounded=0;orthogonalLoop=1;jettySize=auto;html=1;entryX=0.5;entryY=0;entryDx=0;entryDy=0;labelBackgroundColor=default;strokeColor=default;align=center;verticalAlign=middle;fontFamily=Helvetica;fontSize=11;fontColor=default;endArrow=diamondThin;endFill=1;endSize=24;exitX=0.5;exitY=1;exitDx=0;exitDy=0;" parent="WIyWlLk6GJQsqaUBKTNV-1" source="17" target="5" edge="1">
                    <mxGeometry relative="1" as="geometry">
                        <Array as="points">
                            <mxPoint x="337" y="243"/>
                            <mxPoint x="337" y="410"/>
                            <mxPoint x="152" y="410"/>
                        </Array>
                    </mxGeometry>
                </mxCell>
                <mxCell id="tVtpj592pyamEEXmdhVW-76" style="edgeStyle=orthogonalEdgeStyle;shape=connector;rounded=0;orthogonalLoop=1;jettySize=auto;html=1;entryX=0.5;entryY=0;entryDx=0;entryDy=0;labelBackgroundColor=default;strokeColor=default;align=center;verticalAlign=middle;fontFamily=Helvetica;fontSize=11;fontColor=default;endArrow=diamondThin;endFill=1;endSize=24;exitX=0.5;exitY=1;exitDx=0;exitDy=0;" parent="WIyWlLk6GJQsqaUBKTNV-1" source="17" target="4" edge="1">
                    <mxGeometry relative="1" as="geometry"/>
                </mxCell>
                <mxCell id="tVtpj592pyamEEXmdhVW-77" style="edgeStyle=orthogonalEdgeStyle;shape=connector;rounded=0;orthogonalLoop=1;jettySize=auto;html=1;entryX=0.5;entryY=0;entryDx=0;entryDy=0;labelBackgroundColor=default;strokeColor=default;align=center;verticalAlign=middle;fontFamily=Helvetica;fontSize=11;fontColor=default;endArrow=diamondThin;endFill=1;endSize=24;exitX=0.5;exitY=1;exitDx=0;exitDy=0;" parent="WIyWlLk6GJQsqaUBKTNV-1" source="17" target="3" edge="1">
                    <mxGeometry relative="1" as="geometry">
                        <Array as="points">
                            <mxPoint x="337" y="410"/>
                            <mxPoint x="537" y="410"/>
                        </Array>
                    </mxGeometry>
                </mxCell>
                <mxCell id="tVtpj592pyamEEXmdhVW-78" style="edgeStyle=orthogonalEdgeStyle;shape=connector;rounded=0;orthogonalLoop=1;jettySize=auto;html=1;entryX=0.5;entryY=0;entryDx=0;entryDy=0;labelBackgroundColor=default;strokeColor=default;align=center;verticalAlign=middle;fontFamily=Helvetica;fontSize=11;fontColor=default;endArrow=diamondThin;endFill=1;endSize=24;exitX=0.5;exitY=1;exitDx=0;exitDy=0;" parent="WIyWlLk6GJQsqaUBKTNV-1" source="3" target="2" edge="1">
                    <mxGeometry relative="1" as="geometry"/>
                </mxCell>
                <mxCell id="tVtpj592pyamEEXmdhVW-79" style="edgeStyle=orthogonalEdgeStyle;shape=connector;rounded=0;orthogonalLoop=1;jettySize=auto;html=1;labelBackgroundColor=default;strokeColor=default;align=center;verticalAlign=middle;fontFamily=Helvetica;fontSize=11;fontColor=default;endArrow=diamondThin;endFill=1;endSize=24;exitX=1;exitY=0.5;exitDx=0;exitDy=0;entryX=0.5;entryY=1;entryDx=0;entryDy=0;" parent="WIyWlLk6GJQsqaUBKTNV-1" source="2" target="14" edge="1">
                    <mxGeometry relative="1" as="geometry"/>
                </mxCell>
                <mxCell id="tVtpj592pyamEEXmdhVW-91" style="edgeStyle=orthogonalEdgeStyle;shape=connector;rounded=0;orthogonalLoop=1;jettySize=auto;html=1;entryX=0;entryY=0.5;entryDx=0;entryDy=0;labelBackgroundColor=default;strokeColor=default;align=center;verticalAlign=middle;fontFamily=Helvetica;fontSize=11;fontColor=default;endArrow=diamondThin;endFill=1;endSize=24;exitX=0.5;exitY=1;exitDx=0;exitDy=0;" parent="WIyWlLk6GJQsqaUBKTNV-1" source="16" target="14" edge="1">
                    <mxGeometry relative="1" as="geometry">
                        <Array as="points">
                            <mxPoint x="332" y="130"/>
                            <mxPoint x="552" y="130"/>
                            <mxPoint x="552" y="325"/>
                        </Array>
                    </mxGeometry>
                </mxCell>
                <mxCell id="tVtpj592pyamEEXmdhVW-40" value="Any subclass of minigames.MiniGame&lt;br&gt;&lt;br&gt;(See minigames class diagram for details)" style="html=1;dropTarget=0;whiteSpace=wrap;fontFamily=Helvetica;fontSize=11;fontColor=default;" parent="WIyWlLk6GJQsqaUBKTNV-1" vertex="1">
                    <mxGeometry x="27" y="245" width="180" height="74" as="geometry"/>
                </mxCell>
                <mxCell id="tVtpj592pyamEEXmdhVW-71" style="edgeStyle=orthogonalEdgeStyle;shape=connector;rounded=0;orthogonalLoop=1;jettySize=auto;html=1;entryX=0.5;entryY=0;entryDx=0;entryDy=0;labelBackgroundColor=default;strokeColor=default;align=center;verticalAlign=middle;fontFamily=Helvetica;fontSize=11;fontColor=default;endArrow=diamondThin;endFill=1;endSize=24;exitX=0.5;exitY=1;exitDx=0;exitDy=0;" parent="WIyWlLk6GJQsqaUBKTNV-1" source="8" target="7" edge="1">
                    <mxGeometry relative="1" as="geometry"/>
                </mxCell>
                <mxCell id="tVtpj592pyamEEXmdhVW-86" style="edgeStyle=orthogonalEdgeStyle;shape=connector;rounded=0;orthogonalLoop=1;jettySize=auto;html=1;exitX=0.901;exitY=-0.035;exitDx=0;exitDy=0;labelBackgroundColor=default;strokeColor=default;align=center;verticalAlign=middle;fontFamily=Helvetica;fontSize=11;fontColor=default;endArrow=diamondThin;endFill=1;endSize=24;exitPerimeter=0;entryX=0.5;entryY=1;entryDx=0;entryDy=0;" parent="WIyWlLk6GJQsqaUBKTNV-1" target="9" edge="1" source="8">
                    <mxGeometry relative="1" as="geometry">
                        <mxPoint x="1106.94" y="270" as="sourcePoint"/>
                        <mxPoint x="1127" y="140" as="targetPoint"/>
                    </mxGeometry>
                </mxCell>
                <mxCell id="tVtpj592pyamEEXmdhVW-72" style="edgeStyle=orthogonalEdgeStyle;shape=connector;rounded=0;orthogonalLoop=1;jettySize=auto;html=1;entryX=0.5;entryY=0;entryDx=0;entryDy=0;labelBackgroundColor=default;strokeColor=default;align=center;verticalAlign=middle;fontFamily=Helvetica;fontSize=11;fontColor=default;endArrow=diamondThin;endFill=1;endSize=24;exitX=0.5;exitY=1;exitDx=0;exitDy=0;" parent="WIyWlLk6GJQsqaUBKTNV-1" source="7" target="6" edge="1">
                    <mxGeometry relative="1" as="geometry"/>
                </mxCell>
                <mxCell id="tVtpj592pyamEEXmdhVW-89" value="" style="rounded=0;whiteSpace=wrap;html=1;fontFamily=Helvetica;fontSize=11;fontColor=default;strokeColor=none;fillColor=default;" parent="WIyWlLk6GJQsqaUBKTNV-1" vertex="1">
                    <mxGeometry x="551.5" y="141.5" width="1" height="19" as="geometry"/>
                </mxCell>
                <mxCell id="tVtpj592pyamEEXmdhVW-66" value="" style="endArrow=diamondThin;endFill=1;endSize=24;html=1;rounded=0;labelBackgroundColor=default;strokeColor=default;align=center;verticalAlign=middle;fontFamily=Helvetica;fontSize=11;fontColor=default;shape=connector;edgeStyle=orthogonalEdgeStyle;entryX=1;entryY=0.5;entryDx=0;entryDy=0;exitX=0;exitY=0.5;exitDx=0;exitDy=0;" parent="WIyWlLk6GJQsqaUBKTNV-1" source="16" target="15" edge="1">
                    <mxGeometry width="160" relative="1" as="geometry">
                        <mxPoint x="237" y="140" as="sourcePoint"/>
                        <mxPoint x="707" y="380" as="targetPoint"/>
                    </mxGeometry>
                </mxCell>
                <mxCell id="tVtpj592pyamEEXmdhVW-69" value="" style="endArrow=diamondThin;endFill=1;endSize=24;html=1;rounded=0;labelBackgroundColor=default;strokeColor=default;align=center;verticalAlign=middle;fontFamily=Helvetica;fontSize=11;fontColor=default;shape=connector;edgeStyle=orthogonalEdgeStyle;exitX=0;exitY=0.5;exitDx=0;exitDy=0;entryX=1;entryY=0.5;entryDx=0;entryDy=0;" parent="WIyWlLk6GJQsqaUBKTNV-1" source="10" target="16" edge="1">
                    <mxGeometry width="160" relative="1" as="geometry">
                        <mxPoint x="547" y="150" as="sourcePoint"/>
                        <mxPoint x="707" y="150" as="targetPoint"/>
                    </mxGeometry>
                </mxCell>
                <mxCell id="tVtpj592pyamEEXmdhVW-70" style="edgeStyle=orthogonalEdgeStyle;shape=connector;rounded=0;orthogonalLoop=1;jettySize=auto;html=1;exitX=1;exitY=0.5;exitDx=0;exitDy=0;labelBackgroundColor=default;strokeColor=default;align=center;verticalAlign=middle;fontFamily=Helvetica;fontSize=11;fontColor=default;endArrow=diamondThin;endFill=1;endSize=24;entryX=0.5;entryY=0;entryDx=0;entryDy=0;" parent="WIyWlLk6GJQsqaUBKTNV-1" target="8" edge="1">
                    <mxGeometry relative="1" as="geometry">
                        <Array as="points">
                            <mxPoint x="927" y="59"/>
                            <mxPoint x="927" y="230"/>
                            <mxPoint x="1047" y="230"/>
                        </Array>
                        <mxPoint x="787" y="58.99999999999994" as="sourcePoint"/>
                        <mxPoint x="1047" y="250" as="targetPoint"/>
                    </mxGeometry>
                </mxCell>
                <mxCell id="tVtpj592pyamEEXmdhVW-74" style="edgeStyle=orthogonalEdgeStyle;shape=connector;rounded=0;orthogonalLoop=1;jettySize=auto;html=1;entryX=1;entryY=0.5;entryDx=0;entryDy=0;labelBackgroundColor=default;strokeColor=default;align=center;verticalAlign=middle;fontFamily=Helvetica;fontSize=11;fontColor=default;endArrow=diamondThin;endFill=1;endSize=24;exitX=0;exitY=0.5;exitDx=0;exitDy=0;" parent="WIyWlLk6GJQsqaUBKTNV-1" source="17" target="tVtpj592pyamEEXmdhVW-40" edge="1">
                    <mxGeometry relative="1" as="geometry"/>
                </mxCell>
                <mxCell id="tVtpj592pyamEEXmdhVW-84" style="edgeStyle=orthogonalEdgeStyle;shape=connector;rounded=0;orthogonalLoop=1;jettySize=auto;html=1;entryX=1;entryY=0.5;entryDx=0;entryDy=0;labelBackgroundColor=default;strokeColor=default;align=center;verticalAlign=middle;fontFamily=Helvetica;fontSize=11;fontColor=default;endArrow=diamondThin;endFill=1;endSize=24;exitX=0;exitY=0.5;exitDx=0;exitDy=0;" parent="WIyWlLk6GJQsqaUBKTNV-1" source="8" target="14" edge="1">
                    <mxGeometry relative="1" as="geometry"/>
                </mxCell>
                <mxCell id="tVtpj592pyamEEXmdhVW-85" style="edgeStyle=orthogonalEdgeStyle;shape=connector;rounded=0;orthogonalLoop=1;jettySize=auto;html=1;entryX=0;entryY=0.5;entryDx=0;entryDy=0;labelBackgroundColor=default;strokeColor=default;align=center;verticalAlign=middle;fontFamily=Helvetica;fontSize=11;fontColor=default;endArrow=diamondThin;endFill=1;endSize=24;exitX=1;exitY=0.5;exitDx=0;exitDy=0;" parent="WIyWlLk6GJQsqaUBKTNV-1" source="10" target="9" edge="1">
                    <mxGeometry relative="1" as="geometry"/>
                </mxCell>
                <mxCell id="tVtpj592pyamEEXmdhVW-88" value="" style="shape=requiredInterface;html=1;verticalLabelPosition=bottom;sketch=0;fontFamily=Helvetica;fontSize=11;fontColor=default;" parent="WIyWlLk6GJQsqaUBKTNV-1" vertex="1">
                    <mxGeometry x="552" y="141" width="10" height="20" as="geometry"/>
                </mxCell>
                <mxCell id="tVtpj592pyamEEXmdhVW-73" style="edgeStyle=orthogonalEdgeStyle;shape=connector;rounded=0;orthogonalLoop=1;jettySize=auto;html=1;entryX=0.5;entryY=0;entryDx=0;entryDy=0;labelBackgroundColor=default;strokeColor=default;align=center;verticalAlign=middle;fontFamily=Helvetica;fontSize=11;fontColor=default;endArrow=diamondThin;endFill=1;endSize=24;exitX=0.5;exitY=1;exitDx=0;exitDy=0;" parent="WIyWlLk6GJQsqaUBKTNV-1" source="10" target="17" edge="1">
                    <mxGeometry relative="1" as="geometry">
                        <Array as="points">
                            <mxPoint x="702" y="150"/>
                            <mxPoint x="337" y="150"/>
                            <mxPoint x="337" y="193"/>
                        </Array>
                    </mxGeometry>
                </mxCell>
                <mxCell id="tVtpj592pyamEEXmdhVW-92" style="edgeStyle=orthogonalEdgeStyle;shape=connector;rounded=0;orthogonalLoop=1;jettySize=auto;html=1;entryX=0;entryY=0.5;entryDx=0;entryDy=0;labelBackgroundColor=default;strokeColor=default;align=center;verticalAlign=middle;fontFamily=Helvetica;fontSize=11;fontColor=default;endArrow=diamondThin;endFill=1;endSize=24;exitX=1;exitY=0.5;exitDx=0;exitDy=0;" parent="WIyWlLk6GJQsqaUBKTNV-1" source="17" target="14" edge="1">
                    <mxGeometry relative="1" as="geometry">
                        <Array as="points">
                            <mxPoint x="392" y="280"/>
                            <mxPoint x="552" y="280"/>
                            <mxPoint x="552" y="325"/>
                        </Array>
                    </mxGeometry>
                </mxCell>
                <mxCell id="tVtpj592pyamEEXmdhVW-93" value="" style="rounded=0;whiteSpace=wrap;html=1;fontFamily=Helvetica;fontSize=11;fontColor=default;strokeColor=none;fillColor=default;" parent="WIyWlLk6GJQsqaUBKTNV-1" vertex="1">
                    <mxGeometry x="926.5" y="83.5" width="1" height="19" as="geometry"/>
                </mxCell>
                <mxCell id="tVtpj592pyamEEXmdhVW-95" value="" style="shape=requiredInterface;html=1;verticalLabelPosition=bottom;sketch=0;fontFamily=Helvetica;fontSize=11;fontColor=default;" parent="WIyWlLk6GJQsqaUBKTNV-1" vertex="1">
                    <mxGeometry x="927" y="83" width="10" height="20" as="geometry"/>
                </mxCell>
                <mxCell id="tVtpj592pyamEEXmdhVW-87" style="edgeStyle=orthogonalEdgeStyle;shape=connector;rounded=0;orthogonalLoop=1;jettySize=auto;html=1;exitX=0;exitY=0.75;exitDx=0;exitDy=0;entryX=0.75;entryY=0;entryDx=0;entryDy=0;labelBackgroundColor=default;strokeColor=default;align=center;verticalAlign=middle;fontFamily=Helvetica;fontSize=11;fontColor=default;endArrow=block;endFill=1;endSize=24;" parent="WIyWlLk6GJQsqaUBKTNV-1" source="9" target="14" edge="1">
                    <mxGeometry relative="1" as="geometry">
                        <Array as="points">
                            <mxPoint x="1027" y="72"/>
                            <mxPoint x="1027" y="92"/>
                            <mxPoint x="780" y="92"/>
                            <mxPoint x="780" y="250"/>
                            <mxPoint x="780" y="250"/>
                        </Array>
                    </mxGeometry>
                </mxCell>
                <mxCell id="2" value="Task" style="html=1;" vertex="1" parent="WIyWlLk6GJQsqaUBKTNV-1">
                    <mxGeometry x="482" y="650" width="110" height="50" as="geometry"/>
                </mxCell>
                <mxCell id="3" value="TaskList" style="html=1;" vertex="1" parent="WIyWlLk6GJQsqaUBKTNV-1">
                    <mxGeometry x="482" y="528" width="110" height="50" as="geometry"/>
                </mxCell>
                <mxCell id="4" value="FrustrationBar" style="html=1;" vertex="1" parent="WIyWlLk6GJQsqaUBKTNV-1">
                    <mxGeometry x="282" y="528" width="110" height="50" as="geometry"/>
                </mxCell>
                <mxCell id="5" value="InfoBar" style="html=1;" vertex="1" parent="WIyWlLk6GJQsqaUBKTNV-1">
                    <mxGeometry x="97" y="528" width="110" height="50" as="geometry"/>
                </mxCell>
                <mxCell id="6" value="LeaderBoardRow" style="html=1;" vertex="1" parent="WIyWlLk6GJQsqaUBKTNV-1">
                    <mxGeometry x="992" y="578" width="110" height="50" as="geometry"/>
                </mxCell>
                <mxCell id="7" value="LeaderBoard" style="html=1;" vertex="1" parent="WIyWlLk6GJQsqaUBKTNV-1">
                    <mxGeometry x="992" y="440" width="110" height="50" as="geometry"/>
                </mxCell>
                <mxCell id="8" value="LeaderBoardScreen" style="html=1;" vertex="1" parent="WIyWlLk6GJQsqaUBKTNV-1">
                    <mxGeometry x="992" y="284" width="110" height="50" as="geometry"/>
                </mxCell>
                <mxCell id="9" value="ToggleButton" style="html=1;" vertex="1" parent="WIyWlLk6GJQsqaUBKTNV-1">
                    <mxGeometry x="1012" y="34" width="110" height="50" as="geometry"/>
                </mxCell>
                <mxCell id="10" value="MainMenu" style="html=1;" vertex="1" parent="WIyWlLk6GJQsqaUBKTNV-1">
                    <mxGeometry x="647" y="34" width="110" height="50" as="geometry"/>
                </mxCell>
                <mxCell id="14" value="Button" style="html=1;" vertex="1" parent="WIyWlLk6GJQsqaUBKTNV-1">
                    <mxGeometry x="697" y="300" width="110" height="50" as="geometry"/>
                </mxCell>
                <mxCell id="15" value="Image" style="html=1;" vertex="1" parent="WIyWlLk6GJQsqaUBKTNV-1">
                    <mxGeometry x="62" y="34" width="110" height="50" as="geometry"/>
                </mxCell>
                <mxCell id="16" value="LearningMode" style="html=1;" vertex="1" parent="WIyWlLk6GJQsqaUBKTNV-1">
                    <mxGeometry x="277" y="34" width="110" height="50" as="geometry"/>
                </mxCell>
                <mxCell id="17" value="DoorsOS" style="html=1;" vertex="1" parent="WIyWlLk6GJQsqaUBKTNV-1">
                    <mxGeometry x="282" y="257" width="110" height="50" as="geometry"/>
                </mxCell>
                <mxCell id="18" value="&lt;font style=&quot;font-size: 20px;&quot;&gt;Class diagram of DoorsOS showing relations. See seperate diagram for details of attributes&lt;/font&gt;" style="text;html=1;strokeColor=none;fillColor=none;align=center;verticalAlign=middle;whiteSpace=wrap;rounded=0;" vertex="1" parent="WIyWlLk6GJQsqaUBKTNV-1">
                    <mxGeometry x="797" y="670" width="295" height="120" as="geometry"/>
                </mxCell>
            </root>
        </mxGraphModel>
    </diagram>
</mxfile>